<?xml version="1.0" standalone="no"?>
<!DOCTYPE svg PUBLIC "-//W3C//DTD SVG 20010904//EN"
 "http://www.w3.org/TR/2001/REC-SVG-20010904/DTD/svg10.dtd">
<svg version="1.0" xmlns="http://www.w3.org/2000/svg"
 width="200.000000pt" height="200.000000pt" viewBox="0 0 200.000000 200.000000"
 preserveAspectRatio="xMidYMid meet">
<metadata>
Created by potrace 1.11, written by Peter Selinger 2001-2013
</metadata>
<g transform="translate(0.000000,200.000000) scale(0.100000,-0.100000)"
fill="#000000" stroke="none">
<path d="M0 1000 l0 -1000 1000 0 1000 0 0 1000 0 1000 -1000 0 -1000 0 0
-1000z m996 485 c36 -19 62 -25 112 -25 65 0 66 0 113 -49 37 -38 49 -60 58
-102 7 -30 18 -64 27 -76 18 -29 75 -53 123 -53 53 0 73 -18 69 -60 -2 -26 -8
-36 -23 -38 -44 -7 -64 -24 -70 -64 -8 -46 6 -66 58 -84 20 -7 32 -17 32 -29
0 -24 19 -30 35 -10 16 19 0 40 -38 50 -57 14 -78 59 -48 101 11 15 26 19 69
19 63 0 72 -5 62 -35 -5 -16 -10 -19 -18 -11 -14 14 -67 15 -67 1 0 -5 8 -10
18 -10 9 0 24 -5 32 -11 11 -8 8 -9 -15 -5 -22 5 -26 4 -15 -4 8 -5 22 -10 31
-10 24 0 46 -30 53 -72 4 -21 17 -45 30 -55 23 -19 32 -57 40 -188 5 -66 13
-95 28 -95 6 0 26 14 45 30 28 25 37 28 54 19 37 -19 52 -75 47 -169 -3 -47
-13 -102 -21 -122 -18 -43 -196 -223 -278 -281 -46 -33 -60 -38 -93 -33 -22 2
-50 15 -65 29 -14 14 -45 34 -68 46 -49 24 -73 54 -109 130 -14 31 -39 83 -55
115 -16 32 -29 69 -29 82 0 32 -37 123 -65 160 -13 17 -45 42 -72 55 -32 17
-53 36 -64 58 -22 46 -57 71 -101 71 l-38 0 7 45 c6 45 6 45 -25 45 l-31 0 -3
110 c-3 102 -2 110 17 114 11 2 4 3 -15 3 -28 -2 -36 -6 -38 -25 -2 -13 -9
-21 -15 -19 -9 3 -11 -21 -9 -89 l3 -94 -30 0 -30 0 -3 88 c-3 83 -4 87 -27
90 -41 6 -47 -8 -50 -120 -1 -55 -2 -58 -26 -58 l-25 0 0 110 0 110 25 0 c14
0 25 -5 25 -10 0 -7 7 -7 21 1 12 6 37 9 55 7 22 -3 31 -1 24 6 -5 5 -40 9
-77 8 -38 -1 -73 2 -79 6 -17 10 -84 148 -84 171 0 33 36 50 90 44 41 -5 51
-2 81 24 42 36 53 36 82 -1 20 -25 26 -27 45 -17 12 6 28 27 36 45 10 25 24
37 53 46 21 7 61 35 90 61 28 27 59 49 67 49 8 0 36 -11 62 -25z m728 -152 c3
-7 -3 -22 -13 -35 -17 -20 -22 -21 -56 -10 -45 13 -55 9 -55 -24 0 -25 -15
-33 -23 -11 -5 16 21 93 36 105 31 26 96 11 111 -25z m-1434 -352 c0 -95 10
-113 51 -91 24 14 32 45 27 119 -3 61 -3 61 25 61 l27 0 0 -110 0 -110 -25 0
c-14 0 -25 5 -25 10 0 7 -6 7 -19 0 -23 -12 -71 -13 -87 -2 -24 16 -34 54 -34
131 l0 81 30 0 30 0 0 -89z m1494 68 c17 -14 26 -30 26 -50 0 -20 5 -29 16
-29 21 0 94 -60 94 -78 0 -44 -82 -71 -110 -37 -9 11 -16 13 -24 5 -5 -5 -34
-10 -63 -10 -76 0 -93 19 -93 109 0 63 2 71 26 90 16 13 41 21 64 21 23 0 48
-8 64 -21z"/>
<path d="M700 1145 c-17 -20 -8 -49 15 -53 17 -2 20 3 20 33 0 37 -14 45 -35
20z"/>
<path d="M794 1065 c-3 -8 10 -61 28 -117 l35 -103 39 -2 c21 0 29 1 17 4 -17
3 -29 25 -57 104 -42 116 -42 116 -18 122 10 3 6 5 -11 6 -16 1 -30 -5 -33
-14z"/>
<path d="M922 1020 c-14 -41 -18 -68 -13 -87 7 -25 10 -21 31 47 12 41 29 81
38 88 14 10 12 12 -10 12 -23 0 -29 -7 -46 -60z"/>
<path d="M1070 1073 c-42 -15 -50 -35 -50 -113 0 -94 13 -111 92 -116 l53 -3
-44 8 c-58 10 -71 30 -71 111 0 75 14 96 72 110 l33 8 -35 0 c-19 0 -42 -2
-50 -5z"/>
<path d="M1257 1073 c-4 -3 -7 -55 -7 -115 0 -89 3 -108 15 -108 12 0 15 19
15 109 0 106 1 110 23 114 17 3 15 5 -9 6 -17 0 -34 -2 -37 -6z"/>
<path d="M1335 1069 c-12 -19 2 -21 32 -5 l28 15 -27 1 c-15 0 -30 -5 -33 -11z"/>
<path d="M1125 1021 c11 -4 20 -14 20 -22 0 -8 7 -14 15 -14 8 0 15 9 15 20 0
16 -7 20 -35 22 -27 2 -30 0 -15 -6z"/>
<path d="M1128 943 c18 -2 45 -2 60 0 15 2 0 4 -33 4 -33 0 -45 -2 -27 -4z"/>
<path d="M1151 911 c-15 -13 -18 -21 -10 -26 6 -4 22 4 35 19 29 31 9 37 -25
7z"/>
<path d="M1407 886 c-9 -22 18 -38 71 -42 26 -1 36 -1 22 2 -69 13 -72 15 -67
34 6 23 -18 28 -26 6z"/>
<path d="M1684 1015 c-9 -23 9 -37 42 -33 21 2 29 8 29 23 0 26 -62 35 -71 10z"/>
<path d="M1680 931 c0 -23 25 -51 46 -51 7 0 19 9 26 20 7 11 18 20 24 20 7 0
14 7 18 15 4 12 -5 15 -54 15 -53 0 -60 -2 -60 -19z"/>
</g>
</svg>
