<?xml version="1.0" standalone="no"?>
<!DOCTYPE svg PUBLIC "-//W3C//DTD SVG 20010904//EN"
 "http://www.w3.org/TR/2001/REC-SVG-20010904/DTD/svg10.dtd">
<svg version="1.0" xmlns="http://www.w3.org/2000/svg"
 width="396.000000pt" height="396.000000pt" viewBox="0 0 396.000000 396.000000"
 preserveAspectRatio="xMidYMid meet">
<metadata>
Created by potrace 1.11, written by Peter Selinger 2001-2013
</metadata>
<g transform="translate(0.000000,396.000000) scale(0.100000,-0.100000)"
fill="#000000" stroke="none">
<path d="M0 1980 l0 -1980 1210 0 c666 0 1210 4 1210 8 0 5 -12 19 -26 33 -14
13 -44 60 -66 104 -22 44 -51 92 -64 106 -14 15 -34 55 -45 91 -18 61 -68 137
-145 218 -22 24 -94 136 -94 147 0 6 -42 60 -67 85 -15 16 -74 49 -208 116
-27 14 -62 33 -77 43 -14 11 -31 19 -38 19 -6 0 -32 10 -58 22 -41 20 -65 23
-187 25 -135 2 -141 3 -161 27 -12 14 -30 49 -39 78 -10 29 -26 69 -37 88 -28
48 -68 162 -68 192 0 45 -29 85 -83 116 -29 16 -71 50 -95 76 -36 38 -50 46
-80 47 l-37 1 32 9 c39 11 44 29 9 29 -35 0 -56 10 -56 26 0 19 -7 18 -37 -6
-19 -14 -41 -20 -80 -20 -61 0 -101 17 -132 56 -20 25 -21 39 -21 205 l0 179
53 0 c50 1 51 1 32 18 -25 20 -38 50 -28 64 3 6 5 41 4 78 -3 77 23 183 68
283 17 37 36 86 42 110 16 53 60 119 99 147 20 14 61 26 120 35 49 7 95 17
101 21 7 4 51 11 98 15 110 9 181 40 282 121 25 21 83 54 127 74 49 22 84 44
87 55 4 11 11 19 17 19 6 0 16 7 22 15 7 10 34 18 71 21 33 3 96 12 140 21 57
11 107 14 173 9 86 -5 97 -4 142 19 59 30 97 31 170 4 30 -11 82 -29 115 -40
33 -11 70 -27 82 -35 13 -8 51 -21 86 -29 54 -12 70 -12 116 0 51 13 91 38 91
57 0 5 12 25 26 43 18 24 60 51 139 90 63 31 125 58 137 60 13 3 37 7 53 10
53 11 89 29 112 56 33 39 90 50 268 52 157 2 161 1 209 -26 27 -15 59 -27 71
-27 12 0 25 -3 29 -7 9 -9 51 -16 101 -17 l40 -1 3 263 2 262 -1980 0 -1980 0
0 -1980z"/>
<path d="M1406 2254 c-25 -25 -18 -84 10 -84 10 0 14 14 14 50 0 28 -2 50 -4
50 -3 0 -12 -7 -20 -16z"/>
<path d="M660 2111 c-5 -11 -10 -73 -10 -137 0 -120 -6 -132 -30 -56 -7 23
-19 47 -26 53 -7 6 -11 16 -8 24 3 7 1 16 -5 20 -8 4 -11 -30 -11 -109 0 -112
1 -115 26 -135 15 -12 37 -21 49 -21 12 0 34 9 49 21 l26 20 0 164 0 164 33 4
c20 2 10 4 -25 5 -47 2 -59 -1 -68 -17z"/>
<path d="M3264 2111 c-25 -12 -50 -33 -65 -57 -22 -36 -24 -48 -21 -154 4
-167 34 -214 148 -225 40 -4 43 -3 16 4 -45 12 -109 58 -116 84 -3 12 -6 73
-6 135 0 91 4 120 18 144 27 46 77 71 156 79 l71 6 -80 1 c-59 1 -91 -3 -121
-17z"/>
<path d="M906 2104 c-3 -9 -6 -66 -7 -127 0 -62 -4 -148 -8 -192 -12 -111 0
-129 80 -117 l44 6 -34 6 -34 5 2 191 c1 105 -1 203 -5 218 -7 29 -28 35 -38
10z"/>
<path d="M1060 2105 c-16 -19 -2 -19 41 0 l34 14 -31 1 c-17 0 -37 -7 -44 -15z"/>
<path d="M1403 2108 c-14 -18 -25 -371 -13 -403 5 -14 16 -25 25 -25 13 0 15
30 15 220 0 121 -4 220 -9 220 -5 0 -13 -6 -18 -12z"/>
<path d="M1584 2106 c-5 -14 92 -316 123 -381 10 -21 24 -41 32 -43 19 -6 8
48 -31 158 -17 47 -42 119 -56 160 -38 114 -41 120 -52 120 -6 0 -13 -6 -16
-14z"/>
<path d="M1873 2108 c-5 -7 -16 -38 -25 -68 -8 -30 -23 -83 -33 -116 -13 -47
-15 -69 -7 -90 6 -20 11 -24 15 -14 37 115 87 282 87 290 0 14 -26 12 -37 -2z"/>
<path d="M2150 2113 c-104 -37 -120 -66 -120 -210 0 -61 5 -123 10 -139 10
-29 56 -66 98 -79 18 -5 14 2 -19 32 l-42 40 -5 100 c-2 56 -2 117 2 137 8 43
49 94 91 112 29 13 17 18 -15 7z"/>
<path d="M2502 2108 c-8 -8 -12 -68 -12 -203 0 -185 4 -215 32 -215 4 0 8 97
8 215 0 118 -4 215 -8 215 -4 0 -13 -5 -20 -12z"/>
<path d="M2668 2108 c-16 -5 -28 -16 -28 -23 0 -11 9 -9 38 7 20 12 39 23 41
25 9 7 -25 1 -51 -9z"/>
<path d="M2859 2104 c-64 -27 -88 -116 -49 -180 16 -25 37 -39 93 -60 40 -15
78 -32 85 -37 17 -13 15 -37 -5 -59 -15 -17 -15 -18 10 -18 46 0 65 68 25 88
-13 6 -46 18 -75 27 -29 9 -65 30 -82 48 -58 58 -36 159 43 193 23 10 26 13
11 13 -11 0 -36 -7 -56 -15z"/>
<path d="M1135 2027 c18 -14 20 -30 25 -179 5 -160 5 -163 28 -166 l22 -3 0
164 c0 180 -1 182 -61 193 -32 6 -33 6 -14 -9z"/>
<path d="M2269 2024 c18 -13 22 -23 17 -45 -5 -26 -3 -29 19 -29 22 0 25 4 25
35 0 29 -5 37 -26 45 -14 6 -33 10 -42 10 -13 0 -11 -4 7 -16z"/>
<path d="M2995 2030 c17 -4 39 -8 50 -8 16 0 15 2 -5 8 -14 4 -36 8 -50 8 -22
0 -22 -1 5 -8z"/>
<path d="M3398 2024 c15 -10 22 -24 20 -37 -2 -18 -12 -23 -48 -28 -37 -5 -32
-6 33 -7 l77 -2 0 35 c0 29 -5 37 -26 45 -14 6 -37 10 -52 10 l-26 0 22 -16z"/>
<path d="M3368 1863 c17 -2 47 -2 65 0 17 2 3 4 -33 4 -36 0 -50 -2 -32 -4z"/>
<path d="M3452 1820 c-12 -5 -27 -21 -33 -34 -7 -14 -19 -27 -28 -29 -9 -3 0
-5 19 -6 45 -1 58 8 69 47 10 34 8 36 -27 22z"/>
<path d="M2286 1785 c-25 -33 -26 -35 -7 -35 23 0 51 25 51 45 0 28 -19 24
-44 -10z"/>
<path d="M2804 1743 c-7 -26 14 -53 40 -53 6 0 3 5 -7 11 -13 8 -15 14 -7 29
14 26 12 40 -5 40 -8 0 -18 -12 -21 -27z"/>
<path d="M3940 1531 c-5 -11 -10 -38 -10 -61 0 -23 -7 -78 -15 -123 -37 -209
-34 -342 11 -557 30 -141 31 -206 4 -240 -11 -14 -20 -34 -20 -45 0 -11 -7
-31 -16 -43 -8 -13 -24 -53 -35 -90 -20 -68 -19 -150 1 -229 8 -30 3 -66 -14
-120 -7 -22 -5 -23 53 -23 l61 0 0 775 c0 426 -2 775 -5 775 -2 0 -9 -9 -15
-19z"/>
<path d="M3455 83 c-22 -21 -45 -48 -52 -60 l-12 -23 120 0 120 0 -23 41 c-20
36 -78 79 -106 79 -4 0 -26 -17 -47 -37z"/>
</g>
</svg>
